<svg width="100%" height="100%" viewBox="0 0 512 512" version="1.1" xmlns="http://www.w3.org/2000/svg" xmlns:xlink="http://www.w3.org/1999/xlink" xml:space="preserve" xmlns:serif="http://www.serif.com/" style="fill-rule:evenodd;clip-rule:evenodd;stroke-linejoin:round;stroke-miterlimit:2;">
    <style>
        .block { fill: #0b0b0f; }
        @media (prefers-color-scheme: dark) {
            .block { fill: #f2f2f2; }
        }
    </style>
    <path class="block" d="M512,96l0,320c0,52.984 -43.016,96 -96,96l-320,0c-52.984,0 -96,-43.016 -96,-96l0,-320c0,-52.984 43.016,-96 96,-96l320,0c52.984,0 96,43.016 96,96Zm-96.011,80.389l53.127,0l0,-56.669l-53.127,0l0,56.669Zm-193.658,55.292c-4.819,-8.296 -11.558,-15.376 -20.217,-21.24c-13.796,-9.344 -29.667,-14.015 -47.612,-14.015c-16.461,0 -30.814,3.913 -43.058,11.739c-7.882,5.038 -14.038,11.753 -18.468,20.146l0,-27.027l-50.091,0l0,219.997l53.127,0l0,-129.124c0,-9.715 1.771,-18.063 5.313,-25.046c3.542,-6.982 8.517,-12.413 14.926,-16.292c6.409,-3.879 13.864,-5.819 22.364,-5.819c8.703,0 16.191,1.94 22.465,5.819c6.274,3.879 11.165,9.293 14.673,16.242c3.508,6.949 5.262,15.314 5.262,25.096l0,129.124l53.127,0l0,-129.124c0,-9.715 1.771,-18.063 5.313,-25.046c3.542,-6.982 8.534,-12.413 14.977,-16.292c6.443,-3.879 13.881,-5.819 22.313,-5.819c8.703,0 16.191,1.94 22.465,5.819c6.274,3.879 11.165,9.293 14.673,16.242c3.508,6.949 5.262,15.314 5.262,25.096l0,129.124l53.127,0l0,-141.774c0,-16.394 -3.559,-30.831 -10.676,-43.311c-7.117,-12.481 -16.815,-22.229 -29.093,-29.245c-12.278,-7.016 -26.209,-10.524 -41.793,-10.524c-17.608,0 -33.141,4.335 -46.6,13.004c-8.624,5.555 -15.884,12.972 -21.779,22.252Zm193.658,189.599l53.127,0l0,-219.997l-53.127,0l0,219.997Z" />
</svg>