<?xml version="1.0" encoding="UTF-8" standalone="no"?><!DOCTYPE svg PUBLIC "-//W3C//DTD SVG 1.1//EN" "http://www.w3.org/Graphics/SVG/1.1/DTD/svg11.dtd"><svg width="100%" height="100%" viewBox="0 0 2134 2134" version="1.1" xmlns="http://www.w3.org/2000/svg" xmlns:xlink="http://www.w3.org/1999/xlink" xml:space="preserve" xmlns:serif="http://www.serif.com/" style="fill-rule:evenodd;clip-rule:evenodd;stroke-linejoin:round;stroke-miterlimit:2;"><path d="M2133.333,400l0,1333.333c0,220.766 -179.234,400 -400,400l-1333.333,0c-220.766,0 -400,-179.234 -400,-400l0,-1333.333c0,-220.766 179.234,-400 400,-400l1333.333,0c220.766,0 400,179.234 400,400Z" style="fill:#0b0b0f;"/><g><path d="M178.684,1755.333l0,-916.655l208.714,0l0,211.244l-24.034,-34.153c16.304,-66.339 49.965,-115.812 100.984,-148.419c51.019,-32.607 110.822,-48.911 179.41,-48.911c74.772,0 140.899,19.466 198.384,58.398c57.484,38.932 94.659,90.724 111.525,155.376l-63.247,5.481c28.391,-73.928 70.625,-128.953 126.704,-165.074c56.079,-36.121 120.801,-54.181 194.167,-54.181c64.933,0 122.98,14.617 174.139,43.851c51.16,29.234 91.567,69.852 121.223,121.855c29.656,52.003 44.483,112.157 44.483,180.464l0,590.724l-221.363,0l0,-538.018c0,-40.759 -7.309,-75.615 -21.926,-104.568c-14.617,-28.953 -34.996,-51.511 -61.138,-67.674c-26.142,-16.163 -57.344,-24.245 -93.605,-24.245c-35.137,0 -66.128,8.082 -92.973,24.245c-26.845,16.163 -47.646,38.791 -62.403,67.885c-14.758,29.093 -22.136,63.879 -22.136,104.357l0,538.018l-221.363,0l0,-538.018c0,-40.759 -7.309,-75.615 -21.926,-104.568c-14.617,-28.953 -34.996,-51.511 -61.138,-67.674c-26.142,-16.163 -57.344,-24.245 -93.605,-24.245c-35.418,0 -66.479,8.082 -93.183,24.245c-26.704,16.163 -47.435,38.791 -62.193,67.885c-14.758,29.093 -22.136,63.879 -22.136,104.357l0,538.018l-221.363,0Z" style="fill:#fff;fill-rule:nonzero;"/><path d="M1733.286,1755.333l0,-916.655l221.363,0l0,916.655l-221.363,0Zm0,-1020.379l0,-236.121l221.363,0l0,236.121l-221.363,0Z" style="fill:#fff;fill-rule:nonzero;"/></g></svg>